<svg xmlns="http://www.w3.org/2000/svg" viewBox="0 0 1200 675" role="img" aria-labelledby="title desc">
  <title id="title">Bitcoin Hyper Presale Illustration</title>
  <desc id="desc">Abstract illustration with Bitcoin symbol, layer-2 network nodes and lightning accents</desc>
  <defs>
    <linearGradient id="bg" x1="0%" x2="100%" y1="0%" y2="100%">
      <stop offset="0%" stop-color="#0a2342" />
      <stop offset="50%" stop-color="#173d6c" />
      <stop offset="100%" stop-color="#1e5f91" />
    </linearGradient>
    <radialGradient id="glow" cx="50%" cy="50%" r="65%">
      <stop offset="0%" stop-color="#ffc400" stop-opacity="0.85" />
      <stop offset="70%" stop-color="#ffc400" stop-opacity="0.18" />
      <stop offset="100%" stop-color="#ffc400" stop-opacity="0" />
    </radialGradient>
  </defs>
  <rect width="1200" height="675" fill="url(#bg)" />
  <circle cx="600" cy="340" r="260" fill="url(#glow)" />
  <g fill="none" stroke="#3fd1ff" stroke-width="3" stroke-opacity="0.6">
    <path d="M220 200 Q300 120 420 200 T620 200 T820 200 T1000 200" />
    <path d="M220 480 Q320 560 440 480 T640 480 T840 480 T1000 480" />
    <path d="M300 260 L420 360 L600 260 L780 360 L900 260" />
  </g>
  <g fill="#0a2342" stroke="#ffd166" stroke-width="18" transform="translate(600 340) scale(3.8)">
    <circle r="40" fill="#ffd166" />
    <path d="M-18 -28 h14 a16 16 0 1 1 0 32 h-14 v-32 z" />
    <path d="M-18 12 h18 a16 16 0 1 1 0 32 h-18 v-32 z" />
    <rect x="-18" y="-40" width="8" height="80" rx="4" />
  </g>
  <g fill="#ffffff" fill-opacity="0.2" stroke="#ffffff" stroke-opacity="0.3" stroke-width="2">
    <circle cx="310" cy="150" r="26" />
    <circle cx="995" cy="220" r="22" />
    <circle cx="260" cy="490" r="18" />
    <circle cx="950" cy="500" r="24" />
    <circle cx="520" cy="590" r="20" />
  </g>
  <g fill="#3fd1ff" font-family="'Segoe UI', 'Inter', sans-serif" text-anchor="middle">
    <text x="600" y="120" font-size="64" font-weight="600">Bitcoin Hyper Presale</text>
    <text x="600" y="170" font-size="28" fill="#89f0ff">Layer-2 DeFi pe Bitcoin</text>
    <text x="600" y="580" font-size="36" font-weight="600" fill="#ffd166">$19M+ stransi in presale</text>
    <text x="600" y="620" font-size="26" fill="#f8fafc">Securitatea Bitcoin | Viteza SVM | Rollups ZK</text>
  </g>
</svg>
